<svg xmlns="http://www.w3.org/2000/svg" width="91" height="30"><g fill="none"><path d="M62.248 18.062a.181.181 0 01.257 0l1.135 1.13a.18.18 0 010 .255l-1.135 1.13a.182.182 0 01-.257 0l-1.134-1.13a.18.18 0 010-.255zM13.618 7.5v6.125c0 .726.59 1.313 1.318 1.313h.832c.516-.023.718-.23 1.018-.555l1.971-2.15.07-.069c.323-.383.891-.702 1.431-.702.487 0 1.018.288 1.336.607h.002l.978.949a2.4 2.4 0 010 3.403c-.943.94-2.473.94-3.417 0l-.987-.984-.236.253a2.638 2.638 0 01-2.069.998h-1.369a2.63 2.63 0 01-2.635-2.625V8.376l1.757-.876zm12.3 0v6.126c0 .725.59 1.312 1.317 1.312h9.666v1.75H26.796a2.63 2.63 0 01-2.635-2.625V8.376l1.757-.876zm34.262 0v6.126c0 .725.59 1.312 1.319 1.312h3.953v1.75h-4.393a2.63 2.63 0 01-2.636-2.625V8.375L60.18 7.5zM10.544 8.711v4.04a3.946 3.946 0 01-3.955 3.937H2.636A2.63 2.63 0 010 14.063v-3.5l1.758-.875v3.938c0 .725.59 1.312 1.317 1.312H6.59a2.192 2.192 0 002.197-2.187V9.6l1.758-.889zm40.85-1.21v6.125c0 .725.59 1.312 1.319 1.312h4.832v1.75h-5.271a2.634 2.634 0 01-2.124-1.07 3.948 3.948 0 01-2.709 1.07h-8.784v-1.75h8.784c1.213 0 2.196-.875 2.196-2.625V8.375l1.757-.875zM20.76 13.685s-.495-.472-.91-.059c.002.003-.486.524-.486.524l1.036 1.034a.662.662 0 00.932 0 .654.654 0 000-.929zm24.238-4.81V9.89l-.991.494c-.032.016-.032.027-.032.035 0 .01.024.013.041.014h.244c.552.02.921.394.921.93a.942.942 0 01-.535.856l-1.398.692v-1.015l.991-.494c.032-.016.032-.027.032-.034 0-.01-.021-.013-.038-.014h-.247c-.552-.021-.921-.395-.921-.931a.94.94 0 01.536-.856l1.397-.692zm9.784.865a.181.181 0 01.257 0l1.135 1.13a.18.18 0 010 .256l-1.135 1.13a.182.182 0 01-.257 0l-1.135-1.13a.18.18 0 010-.256zm-49.639 0a.181.181 0 01.257 0l1.135 1.13a.18.18 0 010 .256L5.4 12.257a.182.182 0 01-.257 0L4.01 11.126a.18.18 0 010-.256zm47.051 14.195c.796 0 1.44.642 1.44 1.434v3.825h-3.12c-.928 0-1.68-.75-1.68-1.673 0-.925.752-1.674 1.68-1.674h2.16v-.239a.719.719 0 00-.72-.717h-2.64l.96-.956zm5.76 0c.795 0 1.44.642 1.44 1.434v3.825h-.96v-3.586a.719.719 0 00-.72-.717h-2.16v4.303h-.96v-4.303l.96-.956zm-18.196 0c.796 0 1.44.642 1.44 1.434v3.825h-.96v-3.586a.719.719 0 00-.72-.717h-2.16v4.303h-.96v-4.303l.96-.956zm-11.404 0c.795 0 1.44.642 1.44 1.434v3.825h-.96v-3.586a.719.719 0 00-.72-.717h-1.2v4.303h-.96v-4.303h-1.92v4.303h-.96v-4.303l.96-.956zm-7.68 0c.795 0 1.44.642 1.44 1.434v3.825h-3.12c-.928 0-1.68-.75-1.68-1.673 0-.925.752-1.674 1.68-1.674h2.16v-.239a.72.72 0 00-.72-.717h-2.64l.96-.956zm13.324 0c.795 0 1.44.642 1.44 1.434v3.825h-3.12c-.928 0-1.681-.75-1.681-1.673 0-.925.753-1.674 1.68-1.674h2.16v-.239a.719.719 0 00-.72-.717h-2.64l.928-.956zM16.106 22.5l-.96.957h-1.44c-.53 0-.96.427-.96.956 0 .528.43.956.96.956h.96c1.06 0 1.92.856 1.92 1.913 0 1.056-.86 1.912-1.92 1.912h-2.4v-.956h2.4c.53 0 .96-.428.96-.956a.958.958 0 00-.96-.957h-.96c-1.06 0-1.92-.856-1.92-1.912 0-1.057.86-1.913 1.92-1.913h2.4zm49.183 1.435l-2.595 2.585 2.684 2.674h-1.357l-2.682-2.67.004-.004-.004-.004 2.592-2.581h1.358zm-19.541-1.317c1.042 0 1.886.841 1.886 1.879 0 .46-.166.881-.442 1.208.548.329.914.927.914 1.61a1.883 1.883 0 01-1.886 1.88h-2.83v-6.577zm15.591-.115v6.691h-.985v-6.691h.985zm-15.12 3.873h-1.886v1.878h1.887c.52 0 .943-.42.943-.939a.941.941 0 00-.943-.939zm6.455.427h-2.16a.719.719 0 100 1.435h2.16v-1.435zm-31.52 0h-2.16a.718.718 0 100 1.435h2.16v-1.435zm13.324 0h-2.16a.718.718 0 100 1.435h2.16v-1.435zm11.27-3.246h-1.415v1.879h1.415c.52 0 .943-.42.943-.94a.941.941 0 00-.943-.939z" fill="#004277"/><path fill="#80C9E4" d="M74.338 2.504c-.519 1.143-.952 2.313-1.14 3.354.296.007.584.058.853.168.46.186.881.447 1.255.762a12.77 12.77 0 01.722-2.027 8.6 8.6 0 01.745-1.308c-.69-.568-1.586-.838-2.435-.949M77.53 16.62a5.51 5.51 0 01-.715 1.258c-.169.226-.377.42-.608.586.548.632 1.32 1.209 2.13 1.71.616-.516 1.222-1.174 1.57-1.938a5.397 5.397 0 01-1.048-.527 8.172 8.172 0 01-1.329-1.09M71.829 6.094a6.718 6.718 0 00-.79.324c-.025.92.023 1.85.22 2.62.235-.136.48-.237.728-.29a4.428 4.428 0 011.285-.084 8.538 8.538 0 01-.18-1.66 5.759 5.759 0 01.105-1.146c-.452-.008-.918.086-1.368.236m8.305 9.478c.093.545.113 1.117.05 1.69a3.182 3.182 0 01-.276.974c.617.237 1.321.407 2.069.528.488.079.996.138 1.51.18.313-.96.498-2.05.313-3.076a7.575 7.575 0 01-1.536.056 11.266 11.266 0 01-2.13-.352m-8.876-6.535c-.57.328-1.084.853-1.502 1.38.27.66.61 1.316 1.027 1.8a2.91 2.91 0 01.499-.566c.322-.276.67-.503 1.03-.679a5.801 5.801 0 01-.745-1.105 3.905 3.905 0 01-.309-.83"/><path fill="#80C9E4" d="M86.272 11.266a9.71 9.71 0 01-1.617.948c-.879.4-1.716.692-2.493.89.466.461.884 1 1.225 1.603.205.36.338.753.413 1.161 1.441-.186 3.066-.721 4.682-1.397-.477-1.183-1.185-2.362-2.21-3.205m-15.489.951c-.357.524-.603 1.179-.774 1.803.451.411.975.797 1.52 1.005.047-.256.118-.503.218-.729a5.43 5.43 0 01.631-1.068 4.555 4.555 0 01-1.047-.518 2.752 2.752 0 01-.548-.493m14.67-6.116a8.65 8.65 0 01-.956 1.617 15.716 15.716 0 01-1.895 2.1c.772.119 1.568.334 2.354.655.483.197.92.467 1.316.793 1.428-1.024 2.774-2.462 3.975-4-1.503-.651-3.155-1.13-4.794-1.165M75.138 16.354a4.803 4.803 0 01-1.072.667 2.477 2.477 0 01-.709.196c.175.68.533 1.382.935 2.022.65-.135 1.35-.371 1.915-.775a4.003 4.003 0 01-.536-.77 6.682 6.682 0 01-.533-1.34m-1.778-1.238a4.382 4.382 0 01-1.155.067 2.362 2.362 0 01-.676-.158c-.114.634-.083 1.346.006 2.006.22.061.448.114.68.15.38.063.77.084 1.142.036a3.44 3.44 0 01-.114-.805 6.04 6.04 0 01.117-1.296M79.935.013c-1.232 1.104-2.366 2.277-3.162 3.44.278.227.518.502.702.828a6.85 6.85 0 01.692 1.758 15.73 15.73 0 011.845-1.84 9.723 9.723 0 011.483-1.034c-.223-1.232-.847-2.3-1.56-3.152m4.486 1.876c-1.048.35-2.043.77-2.926 1.276.087.481.112.981.056 1.493a11.524 11.524 0 01-.53 2.418 14.773 14.773 0 012.618-.811 7.89 7.89 0 011.814-.165c.695-1.523 1-3.22 1.088-4.817a26.05 26.05 0 00-2.12.605"/><path fill="#00A0D3" d="M77.921 14.573a5.205 5.205 0 01-.39 2.047c.371.38.815.748 1.328 1.089.31.206.664.38 1.049.527.142-.31.24-.638.277-.974a6.158 6.158 0 00-.05-1.69c-.886-.242-1.632-.586-2.214-.999m-4.724-8.715a5.773 5.773 0 00-.105 1.145c.01.602.072 1.157.18 1.662.64.053 1.241.248 1.753.565-.041-.717.048-1.544.28-2.442a4.645 4.645 0 00-1.255-.762 2.37 2.37 0 00-.853-.168"/><path fill="#00A0D3" d="M71.987 8.748a2.56 2.56 0 00-.729.289c.078.303.18.583.31.83.218.418.47.787.743 1.105a4.276 4.276 0 011.356-.411 3.45 3.45 0 01.341-.026c-.326-.506-.58-1.14-.735-1.87a4.428 4.428 0 00-1.286.083m10.175 4.356a9.83 9.83 0 01-2.373.327c-.17 0-.335-.005-.494-.016a5.51 5.51 0 01.839 2.157 11.28 11.28 0 002.13.352c.485.036 1 .014 1.536-.056a3.664 3.664 0 00-.413-1.16 7.375 7.375 0 00-1.225-1.604m-9.85-2.132a4.91 4.91 0 00-1.03.679 2.9 2.9 0 00-.499.566c.169.194.35.362.548.493.337.224.69.396 1.047.518.371-.49.813-.896 1.294-1.189a4.26 4.26 0 01-1.36-1.067m10.291-1.154c-.89.817-1.791 1.432-2.636 1.834.769.3 1.526.79 2.195 1.452.777-.198 1.614-.49 2.493-.89a9.71 9.71 0 001.617-.948 5.12 5.12 0 00-1.316-.793 10.5 10.5 0 00-2.354-.655m-6.262 5.087a4.854 4.854 0 01-1.202 1.45c.122.441.297.892.534 1.34a4 4 0 00.535.769c.231-.167.44-.36.608-.586.296-.39.535-.814.715-1.258-.534-.546-.934-1.13-1.19-1.715m-1.387-.443a4.285 4.285 0 01-1.593.654 6.04 6.04 0 00-.117 1.296c.004.265.045.534.114.805.248-.032.486-.093.709-.196.387-.174.747-.4 1.072-.667a5.401 5.401 0 01-.186-1.892"/><path fill="#00A0D3" d="M72.378 13.228a5.43 5.43 0 00-.63 1.068 3.204 3.204 0 00-.219.73c.222.085.448.14.676.157.39.029.78.006 1.155-.067a5.13 5.13 0 01.654-1.683 4.012 4.012 0 01-1.636-.205m4.395-9.775a8.535 8.535 0 00-.745 1.308 12.77 12.77 0 00-.722 2.027 4.753 4.753 0 011.276 1.707c.345-.778.875-1.614 1.585-2.456a6.873 6.873 0 00-.691-1.758 2.946 2.946 0 00-.703-.828M81.495 3.165a9.627 9.627 0 00-1.483 1.034 15.758 15.758 0 00-1.845 1.84c.214.89.255 1.796.136 2.638.72-.597 1.638-1.15 2.719-1.601a11.52 11.52 0 00.53-2.419 5.197 5.197 0 00-.057-1.492m2.143 3.099c-.952.204-1.83.482-2.616.812-.359 1.067-.852 2.011-1.419 2.774.173-.034.35-.062.531-.084a9.02 9.02 0 012.468.052 15.724 15.724 0 001.895-2.1 8.66 8.66 0 00.956-1.616 7.921 7.921 0 00-1.815.162"/><path fill="#0065A3" d="M73.273 8.664c.155.731.408 1.365.735 1.871a3.02 3.02 0 011.393.272c-.216-.442-.342-.976-.376-1.577a3.953 3.953 0 00-1.752-.566m4.284 4.313c.231.469.352 1.015.364 1.596.583.413 1.328.757 2.213.999a5.514 5.514 0 00-.839-2.157c-.67-.046-1.258-.195-1.738-.438m-3.889-2.417a4.28 4.28 0 00-1.357.412 4.3 4.3 0 001.361 1.068c.427-.26.883-.43 1.34-.484a3.245 3.245 0 01-1.004-1.021 3.443 3.443 0 00-.34.026m6.298 1.091c-.677.323-1.326.512-1.914.562.473.278.897.688 1.243 1.2.16.012.324.017.494.017a9.826 9.826 0 002.373-.327 6.537 6.537 0 00-2.196-1.452m-3.164 1.752a3.899 3.899 0 01-.462 1.501c.256.585.656 1.169 1.19 1.715a5.2 5.2 0 00.391-2.047c-.48-.34-.86-.737-1.119-1.17m-.799.003c-.27.415-.629.772-1.05 1.056-.054.598.007 1.24.185 1.892.498-.407.91-.904 1.202-1.449a3.834 3.834 0 01-.337-1.499m-.646-.386c-.41.233-.868.37-1.343.413a5.111 5.111 0 00-.654 1.683 4.285 4.285 0 001.592-.654 3.91 3.91 0 01.405-1.442"/><path fill="#0065A3" d="M73.672 12.04a4.708 4.708 0 00-1.294 1.188 4.011 4.011 0 001.636.205 3.8 3.8 0 01.987-1.08 3.02 3.02 0 01-1.329-.313m1.634-5.252c-.232.898-.322 1.725-.281 2.442.446.276.817.64 1.075 1.071.038-.558.201-1.168.483-1.806a4.761 4.761 0 00-1.277-1.707"/><path fill="#0065A3" d="M78.167 6.04c-.71.841-1.24 1.677-1.585 2.455a4.16 4.16 0 01.364 1.703c.32-.526.778-1.042 1.357-1.521a7.085 7.085 0 00-.136-2.638"/><path fill="#0065A3" d="M81.022 7.076c-1.08.451-1.999 1.004-2.72 1.6a5.524 5.524 0 01-.607 1.89c.536-.33 1.183-.573 1.908-.716.567-.763 1.06-1.707 1.419-2.774"/><path fill="#0065A3" d="M80.134 9.766c-.182.022-.358.05-.531.084-.46.618-.967 1.115-1.494 1.467a4.645 4.645 0 011.857.335c.846-.402 1.747-1.017 2.636-1.834a9.007 9.007 0 00-2.468-.052"/></g></svg>